HIERARCHY
ROOT Hips
{
    OFFSET 0.000000 0.000000 0.000000
    CHANNELS 6 Xposition Yposition Zposition Zrotation Xrotation Yrotation
    JOINT Spine
    {
        OFFSET -0.000000 0.081343 0.000000
        CHANNELS 3 Zrotation Xrotation Yrotation
        JOINT Spine1
        {
            OFFSET -0.000000 0.243280 0.000000
            CHANNELS 3 Zrotation Xrotation Yrotation
            JOINT Neck
            {
                OFFSET -0.000000 0.242281 0.022026
                CHANNELS 3 Zrotation Xrotation Yrotation
                JOINT Head
                {
                    OFFSET -0.000000 0.149025 -0.021289
                    CHANNELS 3 Zrotation Xrotation Yrotation
                    End Site
                    {
                        OFFSET -0.000000 0.198396 0.000000
                    }
                }
            }
            JOINT LeftShoulder
            {
                OFFSET 0.039707 0.224479 -0.002125
                CHANNELS 3 Zrotation Xrotation Yrotation
                JOINT LeftArm
                {
                    OFFSET 0.116942 0.000000 0.000000
                    CHANNELS 3 Zrotation Xrotation Yrotation
                    JOINT LeftForeArm
                    {
                        OFFSET 0.282002 0.000000 0.000000
                        CHANNELS 3 Zrotation Xrotation Yrotation
                        JOINT LeftHand
                        {
                            OFFSET 0.358743 0.000000 0.000000
                            CHANNELS 3 Zrotation Xrotation Yrotation
                            End Site
                            {
                                OFFSET 0.148797 0.000000 0.000000
                            }
                        }
                    }
                }
            }
            JOINT RightShoulder
            {
                OFFSET -0.039404 0.224479 -0.002125
                CHANNELS 3 Zrotation Xrotation Yrotation
                JOINT RightArm
                {
                    OFFSET -0.116942 0.000000 0.000000
                    CHANNELS 3 Zrotation Xrotation Yrotation
                    JOINT RightForeArm
                    {
                        OFFSET -0.282002 0.000000 0.000000
                        CHANNELS 3 Zrotation Xrotation Yrotation
                        JOINT RightHand
                        {
                            OFFSET -0.358743 0.000000 0.000000
                            CHANNELS 3 Zrotation Xrotation Yrotation
                            End Site
                            {
                                OFFSET -0.148797 0.000000 0.000000
                            }
                        }
                    }
                }
            }
        }
    }
    JOINT LeftUpLeg
    {
        OFFSET 0.099198 0.000000 0.000000
        CHANNELS 3 Zrotation Xrotation Yrotation
        JOINT LeftLeg
        {
            OFFSET -0.000000 -0.332973 0.000000
            CHANNELS 3 Zrotation Xrotation Yrotation
            JOINT LeftFoot
            {
                OFFSET -0.000000 -0.491254 0.000000
                CHANNELS 3 Zrotation Xrotation Yrotation
                JOINT LeftToeBase
                {
                    OFFSET -0.000000 -0.064479 0.148797
                    CHANNELS 3 Zrotation Xrotation Yrotation
                    End Site
                    {
                        OFFSET -0.000000 0.000000 0.039679
                    }
                }
            }
        }
    }
    JOINT RightUpLeg
    {
        OFFSET -0.099198 0.000000 0.000000
        CHANNELS 3 Zrotation Xrotation Yrotation
        JOINT RightLeg
        {
            OFFSET -0.000000 -0.332973 0.000000
            CHANNELS 3 Zrotation Xrotation Yrotation
            JOINT RightFoot
            {
                OFFSET -0.000000 -0.491254 0.000000
                CHANNELS 3 Zrotation Xrotation Yrotation
                JOINT RightToeBase
                {
                    OFFSET -0.000000 -0.064479 0.148797
                    CHANNELS 3 Zrotation Xrotation Yrotation
                    End Site
                    {
                        OFFSET -0.000000 0.000000 0.039679
                    }
                }
            }
        }
    }
}
MOTION
Frames:    5
Frame Time:    0.010000
-1.132314    0.830866    -0.378583    -1.664806    -4.128170    4.284900    -2.364777    5.132392    -9.295742    3.434115    6.104854    -3.312494    6.775613    23.123024    -8.064444    0.176966    -7.462625    -7.904963    -6.333463    21.759548    3.558154    -46.430668    -6.982784    -18.090174    36.213902    -46.293533    -102.270996    55.308979    -8.307761    -10.114497    4.107994    7.073275    -0.870136    41.891144    1.744045    0.629339    -68.433914    -56.607006    58.925858    -19.432386    -25.280228    20.523876    0.245931    -2.373311    3.441364    -13.942403    35.594212    1.247571    27.475431    -21.369764    24.090799    0.000000    0.000000    0.000000    -15.822979    -33.186882    -19.681684    25.813797    31.662474    -52.384781    4.454459    -14.129440    7.115904    0.000000    0.000000    0.000000    
-1.136276    0.831640    -0.379571    -1.758630    -4.457496    4.479462    1.255307    5.443557    -8.920169    -3.699503    5.041631    -2.790282    12.188160    24.159431    -8.895545    -1.023514    -8.171885    -8.535813    -3.275589    22.010027    2.513014    -46.352360    -6.464995    -17.502171    36.126602    -46.116127    -102.636276    55.462387    -8.053864    -10.496539    11.870523    8.565486    -1.389531    39.134056    2.459672    0.316198    -68.433914    -56.607006    58.925858    -19.432386    -25.280228    20.523876    0.549400    -2.899165    3.488794    -13.491596    36.914684    -9.435418    27.067341    -17.094183    33.698711    0.000000    0.000000    0.000000    -15.758452    -32.676743    -19.786285    23.986172    31.736794    -50.824959    4.454459    -14.129440    7.115904    0.000000    0.000000    0.000000    
-1.140328    0.832776    -0.380390    -1.734227    -4.640784    4.686924    -1.566195    5.267306    -9.134281    2.678779    6.311959    -3.212579    6.903670    23.121414    -8.132108    0.050522    -7.651739    -7.992732    -6.610817    22.213839    3.370280    -47.049004    -5.243252    -18.487587    38.644928    -47.305885    -100.121109    55.407421    -8.103048    -10.303887    6.139081    10.171839    -1.284884    41.991592    2.388718    2.468009    -68.433914    -56.607006    58.925858    -19.432386    -25.280228    20.523876    1.159843    -2.557445    3.044348    -14.304443    36.233997    0.812623    23.972311    -20.987177    24.232281    0.000000    0.000000    0.000000    -15.850840    -32.103523    -19.984585    21.954426    31.406820    -48.807426    4.454459    -14.129440    7.115904    0.000000    0.000000    0.000000    
-1.144413    0.834503    -0.380715    -1.792890    -5.014112    4.855112    2.183851    6.425993    -9.070258    -4.632237    3.562306    -2.838272    12.432420    25.221453    -8.909552    -1.154158    -8.469237    -8.430248    -4.304574    24.032825    3.221280    -46.472935    -5.371759    -18.357185    38.419479    -47.063129    -100.717003    55.505672    -7.736558    -10.725714    13.497591    10.396381    -1.718033    41.430733    8.955055    0.572834    -68.433914    -56.607006    58.925858    -19.432386    -25.280228    20.523876    1.880317    -1.978040    2.463217    -15.474606    35.568195    5.862923    25.472580    -22.141724    20.343134    0.000000    0.000000    0.000000    -15.719135    -31.266066    -20.028122    20.431250    31.311840    -47.316494    4.454459    -14.129440    7.115904    0.000000    0.000000    0.000000    
-1.147853    0.836441    -0.381345    -1.809608    -5.126443    4.740349    -0.752588    5.351538    -8.776948    2.079725    6.523081    -3.052825    6.571912    23.097012    -8.133713    0.283200    -7.590424    -7.970071    -7.701861    24.372252    3.770415    -47.227821    -5.315852    -20.135231    38.854744    -47.611500    -99.842407    55.723724    -8.340249    -9.937442    6.838222    11.446899    -1.722177    44.149487    6.935534    3.422965    -68.433914    -56.607006    58.925858    -19.432386    -25.280228    20.523876    2.069851    -2.007630    2.003870    -15.246649    35.895004    -7.947593    28.792034    -16.146347    32.784519    0.000000    0.000000    0.000000    -15.508388    -30.806231    -19.811687    18.636566    30.821455    -46.275166    4.454459    -14.129440    7.115904    0.000000    0.000000    0.000000    
